<?xml version="1.0" standalone="no"?>
<!DOCTYPE svg PUBLIC "-//W3C//DTD SVG 20010904//EN"
 "http://www.w3.org/TR/2001/REC-SVG-20010904/DTD/svg10.dtd">
<svg version="1.0" xmlns="http://www.w3.org/2000/svg"
 width="1000.000000pt" height="1000.000000pt" viewBox="0 0 1000.000000 1000.000000"
 preserveAspectRatio="xMidYMid meet">

<g transform="translate(0.000000,1000.000000) scale(0.100000,-0.100000)"
fill="#000000" stroke="none">
<path d="M4462 7958 c-7 -7 -12 -19 -12 -27 0 -9 -30 -86 -66 -171 -158 -372
-154 -363 -152 -409 3 -45 3 -45 85 -92 82 -47 156 -100 181 -129 81 -96 235
-338 304 -477 29 -59 47 -83 60 -83 13 0 18 8 18 30 0 33 -60 340 -89 458 -11
42 -31 145 -46 227 -27 148 -38 185 -54 185 -16 0 -21 -44 -21 -177 0 -73 -3
-133 -6 -133 -3 0 -42 33 -87 73 -45 39 -101 88 -125 107 l-42 35 25 130 c32
163 68 433 61 451 -7 17 -18 18 -34 2z"/>
<path d="M5506 7952 c-8 -23 26 -274 59 -447 l25 -130 -42 -35 c-24 -19 -80
-68 -125 -107 -45 -40 -84 -73 -87 -73 -3 0 -6 56 -6 124 0 128 -6 186 -21
186 -16 0 -27 -37 -54 -185 -15 -82 -35 -185 -46 -227 -29 -118 -89 -425 -89
-458 0 -22 5 -30 18 -30 13 0 31 24 60 83 69 139 223 381 304 477 25 29 98 82
181 129 l82 48 0 54 c-1 43 -12 79 -53 174 -29 66 -78 183 -109 260 -30 77
-59 146 -63 154 -10 23 -28 24 -34 3z"/>
<path d="M4935 7535 c-90 -49 -125 -141 -93 -249 14 -47 77 -115 126 -135 42
-17 82 -2 137 54 89 89 85 238 -9 310 -46 35 -117 44 -161 20z"/>
<path d="M2347 6118 c-2 -7 13 -45 34 -83 21 -39 59 -117 84 -175 42 -95 46
-110 41 -160 -3 -30 -15 -84 -26 -118 -11 -35 -20 -74 -20 -85 0 -30 90 -104
143 -118 158 -42 208 -61 265 -103 73 -54 162 -157 249 -287 65 -98 95 -121
110 -83 24 63 -180 466 -294 579 -29 29 -122 62 -225 81 -21 3 -38 9 -38 13 0
3 16 30 35 60 46 73 53 111 27 153 -23 36 -204 216 -293 291 -57 47 -84 58
-92 35z"/>
<path d="M7550 6074 c-97 -83 -258 -244 -282 -282 -26 -42 -19 -80 27 -153 19
-30 35 -57 35 -60 0 -4 -17 -10 -37 -13 -104 -19 -197 -52 -226 -81 -43 -42
-152 -212 -212 -331 -54 -105 -92 -221 -82 -248 15 -38 45 -15 110 83 87 130
176 233 249 287 57 42 106 61 266 103 52 14 140 87 141 118 1 11 -8 50 -19 85
-11 34 -23 88 -26 118 -5 50 -1 65 41 160 25 58 63 136 84 175 61 112 34 127
-69 39z"/>
<path d="M2073 6074 c-3 -8 3 -48 15 -87 52 -186 54 -266 7 -417 -29 -96 -27
-118 26 -220 53 -104 53 -103 4 -149 -24 -22 -67 -52 -95 -66 -41 -21 -454
-185 -465 -185 -2 0 -5 -9 -8 -19 -3 -11 17 -66 45 -128 101 -220 207 -481
237 -582 39 -132 108 -467 120 -586 5 -50 7 -154 4 -231 -6 -141 -6 -142 18
-157 13 -8 56 -18 94 -22 153 -15 516 -95 698 -154 100 -33 337 -107 527 -166
375 -117 367 -114 552 -222 99 -58 142 -90 198 -149 95 -101 186 -241 296
-458 50 -99 99 -185 108 -191 64 -39 35 194 -69 554 -63 219 -176 494 -215
522 -24 17 -30 17 -165 -12 -77 -16 -185 -32 -240 -35 l-100 -6 -260 109
c-274 116 -560 228 -860 338 -99 37 -218 85 -264 108 -73 36 -87 47 -102 82
-72 163 -135 538 -160 952 l-12 199 33 62 c31 59 159 221 213 270 l25 24 39
-59 c38 -57 40 -58 83 -57 25 0 78 6 118 12 172 28 231 -8 497 -304 224 -249
266 -291 293 -299 43 -12 24 39 -79 206 -154 249 -234 360 -417 574 -70 83
-79 87 -227 110 -58 9 -111 23 -125 34 -14 9 -46 59 -72 110 -55 106 -60 150
-26 210 19 34 21 43 10 77 -6 22 -28 67 -49 102 -71 116 -218 322 -231 322 -7
0 -15 -7 -19 -16z"/>
<path d="M7790 5938 c-110 -160 -170 -266 -170 -302 0 -11 9 -34 20 -51 33
-50 26 -102 -27 -206 -27 -51 -59 -101 -73 -110 -15 -11 -68 -25 -130 -35
-159 -24 -149 -17 -341 -251 -83 -101 -184 -247 -298 -432 -94 -153 -112 -193
-93 -204 20 -12 63 26 208 189 361 405 413 441 594 413 41 -7 95 -13 120 -13
43 -1 45 0 83 57 l39 59 25 -24 c54 -49 182 -211 213 -270 l33 -62 -12 -199
c-25 -415 -88 -789 -160 -953 -16 -36 -29 -46 -102 -82 -46 -22 -165 -70 -264
-107 -300 -110 -586 -222 -860 -338 l-260 -109 -100 6 c-55 3 -163 19 -240 35
-188 39 -171 52 -274 -207 -153 -382 -257 -862 -187 -862 20 0 27 11 119 195
107 212 203 360 300 462 64 66 98 91 231 166 l155 89 398 124 c219 69 459 144
534 169 137 45 524 128 654 140 39 4 81 14 94 22 24 15 24 16 18 157 -7 176 3
270 53 519 63 309 117 463 308 880 28 62 48 117 45 128 -3 10 -6 19 -8 19 -9
0 -385 149 -442 175 -39 18 -92 52 -116 75 -52 47 -52 45 2 150 53 102 56 124
26 220 -41 132 -44 224 -10 351 58 216 35 220 -105 17z"/>
<path d="M4425 5243 c-91 -3 -299 -22 -332 -30 -13 -3 -23 -13 -23 -23 0 -14
12 -18 68 -23 37 -3 153 -15 257 -26 105 -12 210 -21 235 -21 33 0 57 -8 90
-30 25 -17 79 -44 120 -62 65 -28 87 -32 160 -32 73 0 95 4 160 32 41 18 95
45 120 62 33 22 57 30 90 30 25 0 131 9 235 21 105 11 220 23 258 26 56 5 67
9 67 24 0 11 -10 19 -27 23 -66 13 -233 25 -429 32 l-211 7 -131 -38 c-145
-41 -123 -42 -296 9 -91 27 -133 29 -411 19z"/>
<path d="M4340 2842 c0 -60 305 -888 340 -926 34 -35 50 -14 50 66 0 78 -46
641 -55 667 -3 9 -26 27 -52 41 -26 14 -92 58 -148 97 -102 74 -135 88 -135
55z"/>
<path d="M5525 2787 c-56 -39 -122 -83 -148 -97 -26 -14 -50 -34 -53 -45 -8
-36 -44 -456 -51 -597 -5 -125 -4 -138 11 -144 11 -4 24 0 36 12 35 38 340
866 340 926 0 33 -33 19 -135 -55z"/>
</g>
</svg>
