<?xml version="1.0" standalone="no"?>
<!DOCTYPE svg PUBLIC "-//W3C//DTD SVG 20010904//EN"
 "http://www.w3.org/TR/2001/REC-SVG-20010904/DTD/svg10.dtd">
<svg version="1.0" xmlns="http://www.w3.org/2000/svg"
 width="250.000000pt" height="365.000000pt" viewBox="0 0 250.000000 365.000000"
 preserveAspectRatio="xMidYMid meet">

<g transform="translate(0.000000,365.000000) scale(0.100000,-0.100000)"
fill="#000000" stroke="none">
<path d="M1366 3491 c-20 -29 -42 -51 -49 -48 -7 2 -14 23 -17 48 l-5 44 -49
-45 c-26 -24 -52 -55 -57 -68 -13 -34 -50 -26 -68 15 l-14 31 -31 -32 c-17
-18 -39 -37 -50 -43 -11 -6 -23 -31 -30 -63 -7 -30 -18 -56 -24 -58 -15 -5
-32 38 -32 81 -1 29 -3 27 -25 -26 -22 -54 -23 -60 -10 -98 13 -36 13 -44 0
-70 -18 -33 -31 -36 -63 -13 -13 9 -26 14 -28 11 -8 -8 25 -68 57 -105 16 -18
30 -45 31 -60 1 -15 2 -34 3 -43 0 -9 6 -23 13 -31 6 -8 15 -29 18 -47 4 -17
17 -40 30 -50 29 -23 30 -36 5 -77 -36 -60 -52 -190 -30 -252 10 -29 8 -35
-27 -79 -58 -73 -58 -72 -35 -66 22 6 25 -4 15 -45 -5 -18 -9 -20 -20 -11 -8
6 -14 18 -14 26 0 20 -18 7 -36 -28 -15 -29 -14 -31 21 -78 30 -42 34 -53 25
-75 -6 -18 -6 -26 1 -26 6 0 13 9 16 20 5 20 23 28 23 11 0 -18 101 -119 135
-135 19 -9 35 -20 35 -25 0 -4 -20 -26 -45 -48 -30 -27 -41 -43 -33 -46 10 -4
10 -8 -2 -16 -8 -5 -11 -13 -7 -17 9 -10 37 28 30 40 -4 5 -1 6 5 2 6 -3 28
12 50 35 31 34 43 40 57 32 16 -9 14 -13 -16 -45 -19 -19 -46 -47 -60 -64 -14
-16 -46 -47 -70 -70 -40 -37 -97 -128 -91 -147 1 -4 -2 -7 -7 -7 -5 0 -14 -15
-20 -33 -13 -39 -66 -105 -76 -95 -4 4 4 18 17 31 13 13 32 46 42 73 10 27 34
72 52 101 40 61 46 93 13 65 -23 -19 -69 -103 -69 -127 0 -27 -46 -108 -79
-139 -17 -17 -31 -35 -31 -40 -1 -13 -70 -89 -76 -84 -2 3 -6 45 -8 94 -2 49
-7 122 -11 162 -7 67 -7 72 12 72 11 0 28 10 39 23 36 41 63 85 57 91 -24 23
-84 -25 -98 -79 l-8 -30 -6 25 c-6 23 -8 22 -25 -20 -17 -42 -19 -44 -32 -25
-8 11 -12 26 -9 34 3 8 2 17 -3 20 -12 8 -92 336 -99 405 -4 36 -2 56 6 61 8
4 14 0 17 -12 3 -10 13 -24 23 -30 16 -10 16 -6 -4 35 -44 92 -45 131 -1 44
26 -50 56 -84 56 -63 0 7 5 9 13 5 6 -4 3 2 -7 14 -21 24 -32 29 -20 10 4 -7
3 -8 -5 -4 -7 4 -10 13 -8 19 2 7 -9 32 -25 56 -35 55 -38 88 -5 50 12 -14 29
-31 38 -37 14 -11 16 -8 12 15 -3 26 -2 25 13 -7 9 -19 23 -50 31 -69 7 -18
16 -31 18 -29 7 6 -41 122 -73 178 -37 66 -46 71 -95 54 -43 -15 -72 -5 -49
18 7 7 8 17 2 27 -4 9 -8 42 -8 74 0 32 -5 63 -12 72 -10 12 -10 18 0 30 7 8
19 15 26 15 7 0 11 6 8 14 -6 17 24 36 58 36 17 0 19 3 9 9 -11 7 -9 11 8 20
12 7 26 9 31 6 5 -3 12 0 16 6 5 8 3 9 -6 4 -10 -6 -12 -4 -7 9 4 10 7 27 7
39 0 18 2 19 10 7 5 -8 10 -10 10 -5 0 6 -5 17 -10 25 -9 13 -10 13 -10 0 0
-9 -6 -5 -13 9 -6 14 -18 26 -26 29 -8 3 -4 -8 9 -26 16 -22 21 -38 16 -56
-13 -52 -120 -75 -140 -30 -5 11 -22 28 -38 37 -19 11 -28 24 -28 42 0 24 -1
25 -16 11 -8 -9 -20 -14 -25 -11 -5 4 -9 -1 -9 -9 0 -8 -9 -18 -20 -21 -28 -9
-70 -67 -70 -98 0 -14 -8 -31 -18 -36 -9 -6 -12 -11 -6 -11 16 0 34 22 34 45
0 16 7 20 33 20 17 1 52 4 75 9 42 8 43 7 33 -13 -9 -15 -9 -27 -1 -41 12 -23
25 -27 17 -6 -3 8 0 22 7 32 12 16 14 14 18 -18 4 -35 2 -37 -37 -47 -86 -23
-105 -23 -125 1 -11 13 -19 17 -20 10 0 -7 -10 -17 -22 -22 -19 -7 -19 -9 -5
-9 10 -1 16 -5 13 -9 -3 -5 8 -7 23 -4 33 5 43 -8 48 -58 2 -19 11 -42 20 -50
15 -13 16 -13 6 0 -6 8 -13 27 -15 43 -5 24 -3 27 16 21 33 -10 48 -26 42 -47
-4 -16 0 -18 20 -14 17 3 24 0 25 -12 0 -9 2 -24 4 -34 3 -18 -33 -34 -59 -24
-11 4 -11 -1 1 -35 7 -22 11 -50 7 -62 -4 -11 -6 -36 -5 -54 1 -23 -2 -31 -10
-27 -8 6 -8 2 0 -13 17 -32 26 -34 55 -11 25 20 27 45 2 36 -19 -8 -34 25 -28
61 3 26 12 36 40 48 20 8 40 12 46 10 6 -2 4 -5 -5 -5 -9 -1 -23 -9 -30 -18
-8 -9 -9 -14 -3 -10 7 4 26 4 43 1 24 -5 31 -12 31 -31 0 -13 -7 -26 -15 -29
-8 -4 -12 -10 -9 -16 9 -14 -43 -65 -73 -73 -20 -5 -23 -9 -13 -20 9 -11 8
-19 -3 -35 -8 -12 -13 -29 -11 -38 5 -21 -3 -33 -35 -50 -22 -13 -23 -12 -17
5 5 12 4 15 -3 8 -14 -15 -1 -67 15 -61 9 4 14 -2 14 -17 0 -18 -2 -19 -11 -7
-8 12 -9 11 -6 -5 2 -11 8 -19 14 -18 6 1 25 -20 44 -46 32 -48 33 -49 57 -33
23 15 25 15 37 -1 7 -10 15 -36 19 -60 4 -23 18 -89 32 -146 14 -57 23 -110
20 -117 -3 -8 -2 -14 3 -14 13 0 22 -59 12 -78 -5 -9 -12 -25 -15 -34 -4 -14
-11 -15 -34 -9 -28 8 -32 5 -85 -67 -32 -44 -52 -79 -46 -83 7 -4 6 -21 -1
-52 -7 -25 -10 -52 -7 -59 3 -7 6 -3 6 10 1 13 5 20 11 17 6 -3 10 -1 10 4 0
23 44 111 59 116 8 3 44 -9 80 -27 l66 -33 -3 -109 c-2 -97 -1 -108 13 -102
27 10 63 -4 81 -32 16 -24 16 -26 0 -38 -9 -6 -20 -28 -23 -48 -4 -29 -2 -36
11 -36 9 0 16 8 17 18 1 25 17 -26 18 -60 1 -19 -4 -28 -14 -28 -9 0 -18 -6
-21 -14 -6 -17 13 -59 24 -52 16 9 31 -11 40 -51 11 -47 8 -53 -22 -53 -24 0
-79 -36 -95 -62 -11 -18 -10 -18 19 -3 22 11 30 12 30 3 0 -7 7 -3 15 9 17 24
71 39 104 28 27 -8 81 -54 81 -67 0 -6 -8 -4 -18 5 -39 36 -142 62 -142 37 0
-5 4 -10 10 -10 5 0 17 -14 26 -31 13 -26 14 -33 2 -40 -7 -5 -16 -9 -20 -9
-12 0 -10 -37 4 -81 9 -31 14 -37 25 -28 20 17 27 4 7 -15 -15 -16 -15 -18 2
-38 19 -21 19 -21 -3 -16 -13 4 -23 2 -23 -3 0 -11 17 -11 58 0 30 9 32 8 39
-17 3 -15 -1 -62 -10 -105 -18 -86 -16 -97 14 -97 19 0 19 1 4 17 -22 22 -13
69 19 94 27 21 41 59 21 59 -23 0 -27 33 -6 54 20 20 21 20 42 0 19 -16 21
-16 16 -2 -3 9 -3 19 1 23 8 7 32 99 27 103 -2 2 -16 -15 -32 -39 l-28 -43 -6
30 c-3 16 -4 41 -1 55 2 15 -2 37 -9 50 -8 13 -14 34 -14 46 -1 21 4 23 49 23
37 0 67 9 118 35 67 35 68 35 56 10 -6 -14 -14 -25 -17 -25 -3 0 -6 -14 -5
-32 1 -26 7 -35 32 -45 18 -7 32 -18 32 -23 0 -6 5 -10 11 -10 6 0 8 8 4 19
-3 10 1 24 10 31 22 18 18 44 -7 55 -28 12 -35 53 -15 91 l14 28 12 -23 c10
-18 9 -27 -4 -48 -9 -13 -14 -27 -12 -30 3 -2 11 6 18 19 6 12 13 24 14 26 4
5 125 -69 125 -76 0 -11 -24 -76 -33 -90 -5 -7 -2 -14 7 -18 31 -12 30 -119
-2 -204 -3 -8 -6 -18 -6 -22 -1 -3 -4 -10 -8 -14 -19 -18 -6 -24 16 -7 13 11
60 28 105 38 72 18 80 22 75 40 -3 11 -20 33 -37 49 -29 26 -29 28 -5 13 33
-20 41 -21 33 -4 -4 6 7 -3 24 -21 17 -18 31 -38 31 -46 0 -7 12 -18 26 -25
30 -13 29 -16 -8 -25 -25 -6 -28 -4 -29 21 -1 17 -3 21 -6 11 -3 -12 -14 -18
-31 -18 -24 0 -25 -1 -7 -14 18 -13 18 -14 -1 -19 -10 -3 -35 -9 -54 -12 -19
-4 -52 -16 -73 -27 -21 -10 -42 -16 -47 -13 -5 3 -8 -7 -7 -22 2 -21 -2 -28
-17 -28 -10 0 -24 8 -30 19 -13 22 -54 66 -62 66 -3 0 4 -12 15 -26 16 -20 18
-31 10 -45 -6 -12 -6 -19 0 -19 5 0 11 5 13 12 3 8 6 9 11 1 8 -13 -13 -39
-39 -47 -16 -5 -26 0 -39 21 -12 18 -14 28 -7 31 7 2 12 16 12 32 0 22 -5 29
-25 32 -13 3 -22 1 -19 -3 3 -5 1 -9 -5 -9 -6 0 -7 -8 -2 -22 9 -24 -6 -88
-24 -100 -6 -5 -3 -8 6 -8 19 0 29 -20 29 -56 l0 -24 664 0 663 0 6 118 5 117
-36 60 c-19 33 -37 63 -38 66 -2 4 16 31 41 61 40 49 44 58 38 94 -4 24 -19
53 -39 76 -82 92 -106 155 -108 289 -1 63 -4 85 -13 82 -7 -3 -15 -13 -18 -22
-12 -39 -84 -52 -138 -25 -53 27 -54 29 -46 91 4 32 10 112 14 178 4 66 10
122 14 125 3 3 12 17 18 32 11 25 15 27 60 21 44 -5 49 -3 49 15 0 11 -3 19
-7 16 -4 -2 -20 3 -35 11 -16 8 -34 15 -41 15 -7 0 -18 10 -24 23 -7 12 -20
29 -29 37 -9 8 -19 22 -22 30 -3 9 -15 -3 -33 -35 -16 -28 -36 -59 -45 -70
-35 -42 -86 -145 -72 -145 4 0 13 14 19 30 11 31 33 41 33 16 0 -21 -41 -68
-55 -63 -6 3 -12 0 -12 -7 0 -6 -16 -38 -36 -69 -20 -32 -37 -62 -37 -68 0 -9
-248 -258 -330 -332 -8 -7 -37 -37 -63 -65 l-48 -52 -30 17 c-16 9 -29 20 -29
23 0 4 16 21 36 38 20 18 32 32 27 32 -5 0 -22 -14 -38 -30 -16 -17 -36 -30
-45 -30 -16 0 -110 89 -110 104 0 4 18 33 40 65 22 31 40 67 40 80 0 28 98
211 113 211 7 1 28 14 46 30 21 18 38 26 41 20 4 -7 17 -2 33 11 15 11 25 25
21 30 -3 5 0 8 7 7 7 -2 22 15 34 37 16 29 28 40 46 41 42 2 44 3 45 28 2 26
-34 53 -58 43 -20 -7 -13 185 9 236 9 21 19 36 22 34 99 -51 130 -61 201 -62
101 -2 112 -3 105 -15 -3 -5 -2 -10 4 -10 5 0 11 -10 13 -22 3 -22 5 -21 38
14 19 20 48 40 64 44 28 7 28 6 24 -27 -3 -19 -9 -43 -13 -54 -8 -18 -7 -19 8
-6 9 7 17 25 17 40 0 39 12 51 47 46 18 -2 56 0 85 5 42 7 55 5 64 -6 16 -21
24 -17 24 12 0 14 12 40 26 59 23 30 25 39 18 94 -3 33 -13 69 -21 78 -14 17
-14 17 -9 1 3 -10 2 -18 -3 -18 -4 0 -9 49 -10 108 -2 109 -17 184 -46 225 -8
12 -20 40 -26 62 -5 22 -27 76 -49 120 -21 44 -50 112 -65 150 -15 39 -32 81
-38 95 -17 35 -189 205 -240 236 -48 30 -94 71 -108 96 -6 11 -1 34 16 72 14
31 25 65 25 74 0 10 5 23 12 30 9 9 7 12 -10 12 -26 0 -27 8 -7 34 21 27 19
39 -5 33 -32 -8 -34 12 -5 43 26 27 26 30 11 51 -9 13 -16 35 -16 49 -1 25 -1
25 -17 -5 -21 -41 -19 -39 -53 -25 -33 14 -53 40 -46 62 2 7 7 26 11 42 l6 30
-45 -42 c-45 -42 -76 -54 -76 -29 0 7 5 18 10 23 13 13 39 114 30 114 -5 0
-21 -16 -37 -37 -43 -52 -76 -21 -37 35 18 26 15 27 -33 7 -44 -19 -42 -19
-51 6 -8 20 -12 17 -46 -30z m-31 -271 c-3 -5 -12 -10 -18 -10 -7 0 -6 4 3 10
19 12 23 12 15 0z m-215 -65 c-12 -19 -26 -35 -31 -35 -19 0 -8 42 18 68 34
34 42 14 13 -33z m205 18 c-22 -20 -57 -52 -78 -70 -21 -19 -45 -52 -53 -73
-14 -35 -18 -38 -35 -27 -10 6 -19 16 -19 21 0 13 61 76 73 76 5 0 36 25 70
55 33 30 65 55 71 55 6 0 -7 -17 -29 -37z m-83 -23 c-22 -22 -46 -40 -53 -40
-15 1 70 79 85 80 4 0 -10 -18 -32 -40z m248 35 c0 -3 -24 -21 -53 -40 -53
-35 -159 -62 -143 -36 4 7 15 11 25 9 9 -1 30 7 46 18 43 30 125 62 125 49z
m-8 -76 c-34 -34 -59 -66 -56 -70 3 -5 2 -9 -3 -10 -4 0 -21 -2 -36 -4 -21 -3
-26 -1 -19 8 21 25 -81 14 -118 -13 -26 -19 -32 -20 -27 -7 10 27 -1 20 -17
-10 -20 -37 -20 -15 0 26 8 17 20 29 25 26 4 -3 19 1 31 9 31 20 148 33 148
17 0 -7 22 10 49 38 27 28 57 51 67 51 11 0 -3 -20 -44 -61z m188 15 c0 -2 -9
-4 -20 -4 -11 0 -20 4 -20 9 0 5 9 7 20 4 11 -3 20 -7 20 -9z m-500 -14 c0 -5
-5 -10 -11 -10 -5 0 -7 5 -4 10 3 6 8 10 11 10 2 0 4 -4 4 -10z m394 -41 c-3
-5 -10 -7 -15 -3 -5 3 -7 10 -3 15 3 5 10 7 15 3 5 -3 7 -10 3 -15z m80 12
c15 -6 16 -10 7 -16 -7 -4 -16 -3 -20 2 -3 6 -13 13 -21 16 -13 5 -13 5 0 6 8
0 24 -4 34 -8z m-144 -4 c0 -2 -9 -12 -20 -22 -24 -21 -27 -14 -4 9 15 15 24
20 24 13z m30 -17 c0 -5 -11 -20 -25 -34 -28 -28 -33 -18 -9 19 16 25 34 33
34 15z m21 -69 c-18 -33 -13 -46 9 -23 11 12 20 30 20 42 0 11 5 20 11 20 6 0
9 -9 6 -20 -3 -11 -2 -22 3 -25 4 -3 11 -25 15 -50 8 -54 -9 -117 -30 -109 -7
3 -16 -3 -20 -15 -8 -25 2 -44 17 -35 7 4 8 2 4 -4 -12 -20 -34 -13 -39 11 -2
12 -5 1 -6 -24 -1 -42 -7 -53 -67 -120 -37 -41 -77 -91 -91 -112 -28 -45 -66
-62 -108 -49 l-30 9 37 7 c36 8 62 36 32 36 -8 0 -12 5 -9 10 7 11 -2 13 -56
10 -21 -1 -40 3 -44 9 -4 7 6 11 28 11 19 0 56 3 82 7 l48 6 -52 14 c-45 11
-54 11 -67 -2 -9 -8 -21 -15 -27 -15 -7 0 -3 8 8 17 19 15 19 15 -7 9 -27 -6
-68 10 -68 27 0 4 10 11 22 16 19 7 22 14 19 57 -1 31 -8 54 -19 62 -11 8 -12
12 -3 12 8 0 11 6 7 15 -3 8 -9 22 -13 32 -4 11 -3 14 6 9 8 -5 14 -1 18 13 3
11 13 23 22 26 9 3 27 30 41 59 16 33 21 52 13 49 -7 -3 -13 0 -13 6 0 10 19
17 65 23 17 3 20 -2 18 -29 -2 -17 2 -35 7 -38 6 -4 10 6 10 24 0 37 19 50 37
26 13 -18 13 -18 27 0 14 19 15 19 39 -5 13 -14 27 -38 31 -54 7 -29 8 -28 38
35 17 35 33 59 35 52 2 -7 0 -21 -6 -32z m-565 -16 c23 -44 39 -110 24 -100
-5 3 -11 -9 -13 -27 -4 -30 -5 -31 -12 -11 -4 13 -11 20 -16 17 -13 -8 -19 13
-28 95 -6 62 -5 71 8 69 9 -2 25 -21 37 -43z m74 -41 c0 -12 -4 -25 -9 -28
-11 -7 -21 17 -21 51 0 21 2 24 15 13 8 -7 15 -23 15 -36z m170 11 c0 -15 -38
-40 -47 -31 -7 7 26 46 39 46 4 0 8 -7 8 -15z m-140 -26 c0 -5 -4 -9 -10 -9
-5 0 -10 7 -10 16 0 8 5 12 10 9 6 -3 10 -10 10 -16z m2 -41 c-7 -7 -12 -8
-12 -2 0 14 12 26 19 19 2 -3 -1 -11 -7 -17z m588 -28 c0 -11 -4 -20 -10 -20
-5 0 -10 9 -10 20 0 11 5 20 10 20 6 0 10 -9 10 -20z m-582 -35 c-3 -14 -1
-28 3 -31 5 -3 9 -18 9 -33 0 -15 5 -32 11 -38 6 -6 9 -19 6 -29 -4 -21 -3
-24 -33 59 -9 26 -19 45 -22 43 -2 -3 0 -19 6 -35 7 -19 7 -33 1 -36 -5 -4 -9
-11 -9 -16 0 -6 4 -8 9 -4 5 3 12 1 15 -4 4 -5 -4 -11 -16 -13 -22 -4 -22 -5
5 -18 30 -15 35 -35 11 -48 -14 -8 -14 -12 0 -46 15 -37 12 -72 -4 -46 -4 7
-8 -20 -8 -59 -1 -91 -13 -115 -55 -107 -39 8 -46 15 -52 52 -2 16 -11 52 -19
79 -18 58 -20 101 -6 110 6 4 18 24 27 46 8 21 19 39 24 39 5 0 9 6 9 13 0 6
12 13 26 13 34 2 40 10 23 30 -16 20 -19 84 -3 84 5 0 15 -5 21 -11 9 -9 10
-7 6 10 -3 13 -1 21 7 21 8 0 11 -9 8 -25z m620 -27 c-4 -25 -3 -28 6 -16 10
14 14 14 31 1 11 -7 21 -19 21 -26 3 -25 17 -57 24 -57 16 0 20 -63 5 -87 -48
-75 -47 -66 -10 -92 28 -19 38 -21 49 -11 8 6 23 10 33 8 10 -2 31 9 46 24 16
15 35 28 44 28 10 0 14 8 12 28 -6 49 16 38 34 -18 32 -100 23 -245 -17 -272
-6 -4 -21 -8 -33 -8 -12 0 -27 -9 -33 -20 -9 -17 -8 -20 13 -20 12 0 43 10 67
23 35 17 46 28 48 50 3 24 6 26 30 21 37 -9 40 -12 56 -42 25 -50 29 -72 11
-72 -8 0 -18 7 -21 15 -7 18 -51 20 -56 3 -4 -12 -69 -25 -193 -37 -101 -10
-109 -14 -146 -67 -35 -52 -47 -57 -22 -11 35 66 34 130 -2 186 -21 34 -31 42
-48 37 -12 -3 -46 2 -75 10 -32 10 -70 14 -91 10 l-37 -6 14 83 c7 45 20 92
28 104 16 25 19 69 5 77 -5 3 -11 -10 -14 -29 -3 -19 -22 -70 -41 -114 -55
-122 -47 -131 122 -147 67 -7 79 -20 40 -46 l-22 -15 37 -38 c34 -35 67 -43
67 -15 0 6 4 8 10 5 10 -6 -30 -95 -59 -129 -9 -11 -11 -17 -5 -13 7 4 10 -15
11 -56 0 -35 3 -76 7 -93 6 -26 4 -30 -16 -31 -12 -1 -28 -10 -35 -19 -7 -10
-13 -13 -13 -6 0 6 -17 14 -37 18 -21 4 -65 20 -98 35 -59 28 -59 28 -30 4 17
-14 55 -32 85 -41 73 -21 100 -47 100 -96 0 -21 5 -38 10 -38 16 0 12 -16 -20
-70 -16 -28 -30 -55 -30 -60 0 -5 -5 -21 -12 -37 -17 -42 -20 -115 -6 -126 10
-6 10 -10 1 -13 -8 -3 -10 -16 -7 -33 8 -40 -26 -102 -86 -153 -58 -50 -82
-55 -130 -23 -19 12 -70 44 -113 71 -83 52 -86 54 -91 81 -2 10 -6 35 -10 56
-7 37 -26 52 -26 20 0 -14 -2 -15 -9 -5 -18 30 41 192 70 192 6 0 7 9 4 20 -4
12 -2 20 4 20 8 0 7 6 -1 19 -15 24 3 135 26 160 15 16 11 66 -5 77 -5 3 -9
28 -9 56 l0 50 35 -30 c19 -17 52 -34 72 -38 21 -3 45 -12 53 -18 18 -14 46
-14 43 -1 -1 6 -11 30 -22 55 -15 31 -21 37 -19 20 2 -14 -1 -25 -7 -25 -5 0
-9 6 -9 13 2 17 -13 15 -20 -3 -6 -17 -20 -14 -94 23 -57 29 -69 43 -89 107
-15 49 -16 68 -3 60 6 -3 10 -18 10 -33 0 -31 33 -90 55 -99 9 -3 24 2 34 11
18 16 20 16 35 -6 20 -28 20 -18 2 27 -16 38 -30 44 -44 18 -8 -14 -12 -12
-26 16 -9 17 -14 36 -11 41 3 5 -2 32 -12 60 -21 60 -13 74 37 60 41 -12 44
-9 36 27 -5 19 -10 23 -16 14 -9 -16 -30 -6 -30 15 0 17 -16 19 -23 2 -3 -7
-6 0 -6 15 -1 16 -5 26 -10 23 -5 -4 -20 -2 -33 3 -23 10 -23 10 4 10 20 1 27
7 30 24 2 12 9 21 16 19 9 -1 9 7 -2 33 -15 34 -14 35 4 25 11 -6 20 -20 20
-31 0 -24 45 -115 62 -125 8 -5 9 -2 3 12 -4 10 -10 31 -13 47 -7 42 16 33 39
-15 l20 -43 -6 38 c-5 29 -3 37 9 37 9 0 18 -14 22 -35 8 -43 10 -42 18 9 4
23 17 50 33 65 l26 26 -6 -42 c-4 -23 -9 -50 -12 -60 -3 -10 8 11 25 46 17 36
34 81 39 101 9 40 43 78 102 116 23 14 39 32 39 44 0 20 17 36 27 26 4 -4 1
-12 -5 -18 -7 -7 -12 -19 -12 -27 0 -11 5 -8 16 8 16 22 17 22 33 4 22 -23 35
-53 32 -75 -1 -11 4 -18 15 -18 14 0 16 8 10 62 -4 34 -11 69 -16 77 -9 17 5
51 21 51 7 0 9 -13 7 -32z m-688 12 c0 -5 -5 -10 -11 -10 -5 0 -7 5 -4 10 3 6
8 10 11 10 2 0 4 -4 4 -10z m0 -35 c0 -8 -2 -15 -4 -15 -2 0 -6 7 -10 15 -3 8
-1 15 4 15 6 0 10 -7 10 -15z m-745 -155 c3 -5 1 -10 -4 -10 -6 0 -11 5 -11
10 0 6 2 10 4 10 3 0 8 -4 11 -10z m1590 -20 c10 -11 14 -20 8 -20 -5 0 -18 9
-28 20 -10 11 -14 20 -8 20 5 0 18 -9 28 -20z m-708 -22 c-3 -8 -6 -5 -6 6 -1
11 2 17 5 13 3 -3 4 -12 1 -19z m-7 -68 c0 -5 -5 -10 -11 -10 -5 0 -7 5 -4 10
3 6 8 10 11 10 2 0 4 -4 4 -10z m-650 -80 c0 -5 -4 -10 -9 -10 -6 0 -13 5 -16
10 -3 6 1 10 9 10 9 0 16 -4 16 -10z m620 -49 c0 -11 -26 -22 -34 -14 -12 12
-5 23 14 23 11 0 20 -4 20 -9z m-165 -21 c-3 -5 -11 -10 -16 -10 -6 0 -7 5 -4
10 3 6 11 10 16 10 6 0 7 -4 4 -10z m10 -59 c-3 -14 -8 -34 -11 -43 -6 -22 14
-24 22 -3 4 9 19 15 39 15 27 0 34 4 37 23 3 16 9 6 21 -35 9 -31 17 -64 17
-73 0 -9 14 -35 31 -56 33 -41 33 -69 1 -69 -28 0 -152 105 -189 161 -28 41
-31 51 -22 77 8 22 16 30 35 30 22 0 25 -4 19 -27z m-565 -90 c0 -5 2 -24 5
-42 l5 -34 -14 30 c-18 36 -20 55 -6 55 6 0 10 -4 10 -9z m1420 -45 c0 -8 10
-23 23 -33 18 -14 21 -24 16 -43 -4 -14 -7 -46 -8 -71 l-1 -46 60 2 c34 1 66
7 72 13 18 18 38 14 38 -5 0 -14 6 -11 25 12 19 23 27 27 33 17 7 -11 10 -10
15 3 5 10 3 14 -5 9 -6 -4 -8 -3 -5 3 4 6 16 13 28 16 19 5 20 3 14 -34 -5
-28 -3 -43 8 -54 13 -13 18 -8 37 40 24 58 40 64 40 14 0 -29 -82 -164 -92
-153 -3 2 -11 -2 -17 -10 -12 -15 -19 -48 -20 -98 -1 -25 -5 -28 -33 -28 -18
0 -50 -5 -72 -11 -48 -13 -136 -3 -136 17 0 8 -7 14 -15 14 -8 0 -15 9 -15 19
0 18 -3 19 -32 10 -18 -6 -41 -15 -51 -20 -14 -7 -25 -6 -43 6 -30 19 -30 26
0 54 18 17 30 21 47 16 21 -7 20 -4 -9 24 -38 38 -55 93 -56 181 -1 54 2 65
17 68 10 2 17 -3 17 -11 0 -23 40 -8 52 19 6 13 15 24 20 24 5 0 13 11 18 25
10 27 30 34 30 11z m297 -38 c-3 -7 -5 -2 -5 12 0 14 2 19 5 13 2 -7 2 -19 0
-25z m-1740 -32 c-3 -8 -2 -16 2 -18 5 -2 12 -23 16 -47 l7 -44 -28 7 c-21 5
-25 4 -14 -4 8 -5 23 -10 33 -10 23 0 22 -23 -2 -44 -23 -21 -41 -14 -40 17 0
12 -1 45 -2 74 -1 31 3 59 11 68 16 19 24 19 17 1z m1810 -18 c-3 -7 -5 -2 -5
12 0 14 2 19 5 13 2 -7 2 -19 0 -25z m90 -30 c-3 -8 -6 -5 -6 6 -1 11 2 17 5
13 3 -3 4 -12 1 -19z m-23 -186 c-1 -105 -3 -122 -19 -122 -10 0 -15 10 -15
30 0 25 -5 31 -40 41 -45 14 -49 29 -19 67 18 23 45 36 84 41 6 0 10 -24 9
-57z m-1764 -23 c0 -5 -4 -9 -10 -9 -5 0 -10 7 -10 16 0 8 5 12 10 9 6 -3 10
-10 10 -16z m1820 -19 c0 -5 -5 -10 -11 -10 -5 0 -7 5 -4 10 3 6 8 10 11 10 2
0 4 -4 4 -10z m-1800 -53 c0 -18 -2 -19 -10 -7 -13 20 -13 43 0 35 6 -3 10
-16 10 -28z m1632 6 c2 -5 19 -15 38 -25 l35 -16 -38 -16 c-61 -26 -91 -5 -71
48 6 16 30 22 36 9z m-1097 -63 c7 -6 18 -31 24 -56 10 -37 9 -51 -5 -80 -9
-19 -26 -37 -39 -40 -13 -3 -26 -16 -29 -29 -3 -12 -14 -25 -23 -28 -10 -2
-27 -8 -38 -12 -16 -7 -18 -6 -7 6 18 20 15 28 -10 21 -16 -4 -19 -2 -13 8 6
10 4 11 -11 5 -10 -4 -37 -9 -59 -12 l-40 -4 26 28 c44 47 82 111 75 128 -3 9
-2 13 4 10 5 -3 18 12 29 34 11 21 26 41 33 44 16 5 65 -8 83 -23z m-513 -41
l9 -24 -20 22 c-23 25 -27 37 -9 31 6 -2 15 -15 20 -29z m-2 -186 c0 -10 3
-29 7 -43 6 -22 5 -24 -10 -11 -18 14 -24 71 -7 71 6 0 10 -8 10 -17z m344
-72 l27 -28 -16 -56 c-9 -30 -23 -61 -31 -67 -11 -10 -12 -15 -1 -24 7 -6 11
-10 9 -9 -2 1 -28 -7 -58 -17 -30 -11 -54 -16 -54 -14 0 3 9 19 21 36 26 36
17 50 -12 17 -14 -17 -19 -19 -15 -7 3 11 -7 31 -29 55 -19 21 -35 32 -35 25
0 -7 -4 -10 -10 -7 -16 10 -12 51 8 67 33 29 97 57 133 58 26 0 42 -7 63 -29z
m1197 -24 c-1 -4 -1 -14 -1 -23 0 -8 -4 -12 -10 -9 -13 8 -13 48 1 43 6 -2 10
-7 10 -11z m-1366 -150 c14 -11 16 -20 10 -43 -8 -27 -9 -27 -12 -6 -3 16 -11
22 -32 22 -15 0 -33 -6 -40 -12 -8 -8 -7 -1 3 20 18 34 41 40 71 19z m150 -83
c-7 -25 -22 -55 -32 -66 -21 -23 -73 -52 -73 -41 0 5 -3 18 -6 31 -5 18 5 33
52 76 32 30 61 53 65 50 5 -2 2 -25 -6 -50z m-192 2 c21 -5 27 -11 23 -23 -5
-13 -4 -14 9 -3 13 11 15 8 15 -19 0 -24 -5 -32 -24 -37 -32 -8 -43 0 -55 39
-5 18 -12 41 -17 52 -6 16 -5 18 7 9 8 -6 27 -14 42 -18z m45 -118 c-2 -13 -9
-23 -17 -23 -7 0 -17 10 -22 23 -7 19 -5 22 17 22 21 0 25 -4 22 -22z m97 -30
c-10 -53 -10 -82 5 -179 7 -48 7 -84 1 -100 -11 -30 -12 -29 -46 124 -23 101
-25 123 -15 148 12 28 34 48 54 49 5 0 5 -19 1 -42z m-99 -23 c-10 -8 -23 -12
-28 -9 -14 9 2 24 25 24 21 -1 21 -1 3 -15z m1 -67 c-3 -8 -6 -5 -6 6 -1 11 2
17 5 13 3 -3 4 -12 1 -19z m1418 -61 c56 -6 68 -23 38 -53 -17 -16 -16 -17 9
-12 22 4 27 1 32 -21 18 -89 35 -169 42 -196 2 -11 0 -33 -6 -50 -9 -27 -10
-26 -6 14 3 25 1 39 -3 32 -6 -9 -10 -2 -14 20 -3 19 -10 50 -15 69 l-10 35
-2 -30 c-2 -16 -4 -37 -5 -45 -1 -8 5 -25 12 -38 8 -12 11 -28 7 -34 -5 -7 -3
-8 6 -3 9 6 10 0 5 -26 -9 -41 -10 -43 -29 -36 -8 3 -18 23 -22 44 l-7 38 -9
-30 c-13 -50 -18 -105 -9 -105 5 0 11 -9 14 -21 3 -12 10 -18 16 -14 7 3 11
-2 11 -14 0 -12 -6 -20 -12 -19 -7 2 -14 -8 -16 -21 -3 -17 0 -21 10 -15 10 6
10 4 -1 -9 -17 -21 -23 -21 -51 1 -15 13 -20 23 -15 32 7 11 10 9 16 -6 5 -13
8 -6 8 25 1 27 -7 58 -20 81 l-22 38 -23 -25 c-28 -31 -31 -68 -6 -82 16 -10
16 -12 -4 -28 -12 -10 -24 -26 -27 -36 -6 -14 -11 -16 -27 -7 -22 12 -25 27
-10 50 8 12 10 12 11 -5 1 -16 2 -15 9 6 11 36 -12 171 -35 205 -18 26 -20 27
-23 9 -3 -11 -12 -31 -22 -45 -9 -14 -20 -42 -23 -63 -8 -49 -23 -67 -55 -67
-14 0 -22 3 -18 7 4 5 13 8 19 8 20 0 21 48 0 63 -16 12 -17 14 -2 25 20 15
35 57 20 57 -18 0 -12 35 9 58 12 12 25 22 30 22 13 0 39 53 38 76 -1 10 17
51 40 91 23 39 42 76 42 81 0 5 17 1 38 -9 20 -10 51 -20 67 -22z m-1280 -187
c10 16 21 12 33 -14 10 -22 8 -24 -21 -29 -41 -6 -47 -2 -47 30 0 21 3 23 14
14 10 -8 16 -9 21 -1z m-15 -141 c0 -16 -2 -29 -4 -29 -2 0 -11 -3 -20 -6 -19
-7 -21 12 -4 48 16 32 28 27 28 -13z m-100 -44 c0 -13 -4 -26 -9 -29 -11 -7
-24 41 -16 55 10 15 25 0 25 -26z m750 -225 c20 13 50 13 50 0 0 -5 -8 -10
-19 -10 -15 0 -20 -10 -26 -45 -6 -43 -42 -95 -65 -95 -12 0 -13 -5 5 54 8 27
15 63 15 79 0 23 3 27 13 19 8 -7 18 -7 27 -2z m240 -63 c99 -36 188 -56 160
-38 -13 9 -12 11 3 11 10 0 20 -7 23 -15 3 -8 21 -17 40 -21 19 -3 42 -14 51
-23 9 -9 32 -28 50 -43 19 -14 29 -29 24 -32 -5 -4 -13 -2 -16 4 -5 8 -11 8
-21 0 -17 -15 -153 -8 -163 9 -4 6 -16 13 -27 16 -10 2 -48 16 -84 30 -36 15
-87 34 -115 42 -91 26 -105 34 -105 60 0 26 32 45 65 38 11 -2 63 -19 115 -38z"/>
<path d="M1556 2938 c-14 -43 -15 -68 -4 -74 8 -5 9 -2 5 9 -3 10 -2 17 3 17
6 0 10 8 10 18 0 10 5 23 12 30 9 9 8 12 -5 12 -10 0 -19 -6 -21 -12z"/>
<path d="M1333 2920 c-13 -5 -23 -14 -23 -20 0 -6 -4 -9 -9 -5 -12 7 -99 -45
-106 -63 -3 -8 3 -16 15 -19 12 -3 20 -14 20 -27 1 -21 1 -21 20 3 18 21 20
21 21 5 0 -16 2 -15 9 4 8 20 13 21 31 12 25 -14 36 -6 21 13 -7 8 -9 17 -5
20 13 13 23 7 23 -15 0 -19 2 -20 10 -8 14 22 12 50 -4 50 -7 0 -31 -12 -52
-26 -39 -26 -39 -26 -16 -2 12 14 20 27 17 30 -6 6 39 41 65 51 13 5 13 5 0 6
-8 0 -25 -4 -37 -9z"/>
<path d="M1450 2825 c-1 -5 -3 -22 -4 -36 -2 -23 0 -25 16 -15 10 6 18 17 18
24 0 7 -4 11 -9 7 -5 -3 -12 3 -14 12 -3 10 -6 14 -7 8z"/>
<path d="M1390 2805 c-10 -12 -10 -15 4 -15 9 0 16 7 16 15 0 8 -2 15 -4 15
-2 0 -9 -7 -16 -15z"/>
<path d="M1481 2770 c-9 -5 -15 -26 -15 -53 -1 -37 2 -43 12 -34 8 6 12 22 8
37 -3 15 0 32 6 38 15 15 7 23 -11 12z"/>
<path d="M1263 2763 c-29 -6 -29 -19 -2 -34 13 -6 19 -7 15 -1 -3 6 1 18 10
26 8 9 12 15 7 15 -4 -1 -18 -4 -30 -6z"/>
<path d="M1350 2760 c0 -5 7 -10 15 -10 8 0 15 5 15 10 0 6 -7 10 -15 10 -8 0
-15 -4 -15 -10z"/>
<path d="M1316 2751 c-8 -12 3 -41 15 -41 12 0 12 37 0 45 -5 3 -12 1 -15 -4z"/>
<path d="M956 2925 c4 -27 8 -52 10 -54 8 -9 2 65 -7 84 -6 13 -7 4 -3 -30z"/>
<path d="M1583 2635 c0 -22 2 -30 4 -17 2 12 2 30 0 40 -3 9 -5 -1 -4 -23z"/>
<path d="M1689 2603 c-1 -5 0 -21 1 -38 2 -16 4 -65 5 -108 2 -83 16 -111 59
-119 18 -4 22 0 24 21 1 14 7 30 12 35 6 6 10 16 10 22 0 19 -51 76 -64 71 -7
-3 -11 10 -12 32 0 48 -12 91 -24 91 -6 0 -10 -3 -11 -7z"/>
<path d="M1600 2548 c0 -9 5 -20 10 -23 13 -8 13 5 0 25 -8 13 -10 13 -10 -2z"/>
<path d="M1314 2359 c-3 -6 -1 -15 6 -19 11 -7 36 3 69 27 2 2 -12 3 -32 3
-20 0 -39 -5 -43 -11z"/>
<path d="M1371 2326 c-14 -17 5 -26 53 -26 39 0 50 8 35 27 -15 17 -73 17 -88
-1z"/>
<path d="M1280 2265 c0 -36 18 -85 31 -85 4 0 10 -12 13 -27 2 -16 3 4 0 44
-5 82 -11 103 -30 103 -9 0 -14 -12 -14 -35z"/>
<path d="M1845 2280 c3 -5 8 -10 11 -10 2 0 4 5 4 10 0 6 -5 10 -11 10 -5 0
-7 -4 -4 -10z"/>
<path d="M1575 2185 c-4 -36 -5 -76 -3 -90 6 -29 -23 -61 -47 -52 -8 4 -23 22
-32 42 -9 19 -19 35 -22 35 -6 -1 -26 -26 -57 -75 l-19 -30 27 18 c40 25 52
22 77 -23 12 -22 25 -40 27 -40 12 0 51 25 77 48 22 21 27 34 27 73 0 27 5 59
11 72 9 21 7 28 -21 55 -17 18 -33 32 -35 32 -2 0 -7 -29 -10 -65z"/>
<path d="M1240 1906 c0 -10 33 -60 45 -69 5 -4 19 -6 30 -5 11 1 36 -6 55 -15
l35 -17 -32 6 c-21 3 -33 1 -33 -5 0 -6 -6 -11 -14 -11 -18 0 -26 -22 -26 -71
0 -48 16 -43 26 6 4 25 12 35 24 35 10 0 21 6 23 13 4 8 6 8 6 0 1 -6 10 -9
21 -6 12 3 28 -1 38 -10 9 -8 35 -18 57 -22 l40 -6 -32 16 c-17 9 -44 30 -60
46 -15 15 -33 29 -40 29 -7 0 -16 6 -20 14 -4 8 -20 17 -34 19 -28 5 -62 23
-91 46 -10 8 -18 11 -18 7z"/>
<path d="M1212 1882 c-15 -10 -7 -38 13 -46 18 -7 26 19 12 38 -7 9 -17 12
-25 8z"/>
<path d="M1189 1725 c-1 -11 -1 -26 0 -33 1 -7 -8 -26 -20 -43 -11 -17 -18
-33 -15 -36 3 -4 6 -1 6 5 0 18 47 14 76 -5 22 -14 25 -21 19 -50 -4 -20 -2
-33 5 -33 5 0 10 -12 10 -26 0 -14 4 -23 10 -19 6 3 10 19 10 36 0 16 5 29 10
29 6 0 10 9 10 20 0 33 19 23 26 -14 9 -51 44 -80 87 -72 25 5 34 12 33 24 -1
11 8 18 23 20 15 2 21 0 17 -7 -4 -7 1 -11 13 -11 32 0 25 20 -9 27 -27 5 -43
23 -20 23 15 0 31 37 24 55 -5 13 -10 10 -22 -15 -11 -22 -21 -30 -36 -28 -17
2 -21 10 -21 43 0 37 -2 40 -25 37 -14 -1 -33 -4 -42 -5 -10 0 -18 -5 -18 -9
0 -9 -78 18 -98 35 -8 6 -23 26 -34 42 -15 25 -18 27 -19 10z m201 -184 c0 -9
8 -11 25 -7 24 6 25 5 13 -14 -23 -36 -68 -19 -68 26 0 13 -4 26 -10 29 -5 3
-10 14 -10 23 0 12 7 9 25 -13 13 -16 24 -36 25 -44z"/>
<path d="M1507 1630 c3 -11 9 -17 14 -15 10 7 1 35 -11 35 -5 0 -6 -9 -3 -20z"/>
<path d="M1141 1584 c0 -11 3 -14 6 -6 3 7 2 16 -1 19 -3 4 -6 -2 -5 -13z"/>
<path d="M1140 1496 c0 -14 4 -27 9 -30 5 -3 9 6 9 19 0 14 -4 28 -9 31 -5 3
-9 -6 -9 -20z"/>
<path d="M1488 1438 c-8 -7 -18 -21 -21 -30 -5 -15 -2 -15 33 3 22 12 37 25
34 30 -7 13 -27 11 -46 -3z"/>
<path d="M1430 1375 c-11 -13 -10 -14 4 -9 9 3 16 10 16 15 0 13 -6 11 -20 -6z"/>
<path d="M1697 2036 c-4 -10 -5 -21 -2 -24 9 -9 17 6 13 25 -3 17 -4 17 -11
-1z"/>
<path d="M1806 2016 c-4 -20 -11 -36 -16 -36 -6 0 -10 -11 -10 -25 0 -16 6
-25 15 -25 9 0 15 9 15 24 0 14 4 35 9 49 5 13 6 29 1 36 -5 8 -10 0 -14 -23z"/>
<path d="M1944 1749 l-19 -22 33 17 c34 18 40 26 19 26 -8 0 -22 -10 -33 -21z"/>
<path d="M2046 807 c3 -10 9 -15 12 -12 3 3 0 11 -7 18 -10 9 -11 8 -5 -6z"/>
<path d="M2040 640 c0 -5 6 -9 13 -7 6 1 12 -5 12 -13 0 -8 -5 -14 -11 -13
-23 4 -21 -43 3 -71 l23 -27 0 64 c0 50 -4 66 -16 71 -21 8 -24 8 -24 -4z"/>
<path d="M2126 604 c-7 -53 -6 -57 18 -48 13 5 16 16 14 47 -4 57 -24 58 -32
1z"/>
<path d="M1570 190 c0 -5 5 -10 10 -10 6 0 10 5 10 10 0 6 -4 10 -10 10 -5 0
-10 -4 -10 -10z"/>
<path d="M1630 170 c0 -5 5 -10 10 -10 6 0 10 5 10 10 0 6 -4 10 -10 10 -5 0
-10 -4 -10 -10z"/>
<path d="M100 3403 c-6 -54 -18 -112 -26 -129 -14 -28 -13 -35 6 -80 l21 -49
-5 40 c-3 24 1 50 9 65 14 24 14 22 15 -35 0 -48 5 -66 24 -90 13 -16 27 -28
30 -25 3 3 -1 33 -9 65 -17 70 -18 95 -7 95 5 0 17 -39 27 -87 18 -92 51 -144
97 -156 18 -5 19 -2 14 31 -3 20 -8 82 -12 136 -7 98 -7 100 -46 139 -22 23
-58 71 -80 109 -22 37 -41 68 -43 68 -1 0 -8 -44 -15 -97z m60 -103 c0 -5 -4
-10 -10 -10 -5 0 -10 5 -10 10 0 6 5 10 10 10 6 0 10 -4 10 -10z"/>
<path d="M357 3103 c48 -41 93 -103 93 -126 0 -11 -8 -26 -17 -33 -17 -12 -16
-13 5 -14 12 0 22 4 22 10 0 13 49 -8 78 -34 37 -32 51 -76 42 -127 -7 -40 -7
-42 7 -24 8 11 19 19 24 17 5 -1 9 14 9 34 0 27 -7 42 -30 62 -28 24 -30 32
-30 94 0 80 -12 118 -38 118 -11 0 -46 8 -78 19 -33 10 -72 21 -89 25 l-30 7
32 -28z"/>
<path d="M29 3031 l-26 -20 -2 -170 c-2 -162 -1 -170 19 -181 13 -7 26 -8 37
-1 16 8 14 11 -10 22 -21 9 -27 19 -27 44 0 17 6 37 12 44 8 9 9 12 1 7 -7 -4
-9 1 -6 15 3 11 16 24 28 29 34 13 36 33 5 46 -37 16 -41 40 -19 110 23 72 21
81 -12 55z"/>
<path d="M452 2904 c10 -10 20 -16 22 -13 3 3 -5 11 -17 18 -21 13 -21 12 -5
-5z"/>
<path d="M197 2869 c4 -13 8 -18 11 -10 2 7 -1 18 -6 23 -8 8 -9 4 -5 -13z"/>
<path d="M236 2705 c-3 -8 3 -19 13 -25 16 -8 18 -7 14 10 -7 27 -19 34 -27
15z"/>
<path d="M27 2589 c7 -7 15 -10 18 -7 3 3 -2 9 -12 12 -14 6 -15 5 -6 -5z"/>
<path d="M570 2279 c0 -4 7 -22 15 -40 8 -19 14 -27 14 -19 0 14 -28 72 -29
59z"/>
<path d="M782 2113 c-1 -28 -5 -60 -8 -70 -5 -17 -5 -17 6 0 6 9 9 41 7 70
l-3 52 -2 -52z"/>
<path d="M547 2050 c20 -44 23 -47 23 -28 0 9 -9 26 -20 39 l-20 24 17 -35z"/>
<path d="M617 2025 c-24 -50 -20 -58 4 -12 11 22 19 41 17 43 -3 2 -12 -12
-21 -31z"/>
<path d="M718 1956 c-71 -42 -84 -59 -117 -147 -18 -45 -18 -50 -3 -29 9 13
25 31 35 39 9 9 17 20 17 26 1 5 17 24 37 40 61 52 83 74 83 85 0 14 -9 12
-52 -14z"/>
<path d="M796 1955 c4 -9 16 -20 28 -26 20 -10 20 -9 2 5 -10 8 -15 19 -11 25
3 6 -1 11 -9 11 -10 0 -13 -6 -10 -15z"/>
<path d="M850 1921 c0 -13 28 -33 33 -23 3 4 -3 13 -14 20 -10 7 -19 8 -19 3z"/>
<path d="M2341 1609 c-1 -22 5 -42 15 -50 13 -11 14 -9 8 17 -15 60 -23 72
-23 33z"/>
<path d="M1803 1588 c-18 -23 -34 -58 -26 -58 9 0 45 61 40 67 -2 2 -9 -2 -14
-9z"/>
<path d="M1852 1572 c-1 -14 1 -22 5 -18 5 4 8 11 8 14 0 4 3 12 7 18 4 6 1
11 -5 11 -7 0 -14 -12 -15 -25z"/>
<path d="M2276 1553 c-3 -21 -6 -47 -6 -58 1 -35 29 25 30 63 0 44 -16 41 -24
-5z"/>
<path d="M485 1539 c-4 -6 -5 -12 -2 -15 2 -3 7 2 10 11 7 17 1 20 -8 4z"/>
<path d="M1880 1500 c0 -5 5 -10 10 -10 6 0 10 5 10 10 0 6 -4 10 -10 10 -5 0
-10 -4 -10 -10z"/>
<path d="M2371 1483 c-5 -11 -10 -55 -9 -98 l0 -79 24 69 c28 79 29 98 10 114
-12 10 -17 8 -25 -6z"/>
<path d="M2304 1472 c4 -7 2 -12 -3 -12 -7 0 -11 -33 -10 -92 1 -82 2 -88 10
-48 19 97 21 147 9 155 -9 5 -11 4 -6 -3z"/>
<path d="M1780 1318 c0 -16 5 -28 10 -28 13 0 13 20 0 40 -8 12 -10 9 -10 -12z"/>
<path d="M2338 1235 c-29 -117 -29 -123 -3 -50 14 39 24 81 23 95 -2 16 -9 0
-20 -45z"/>
<path d="M1775 1233 c-14 -114 -29 -179 -41 -186 -8 -4 -14 -15 -14 -22 0 -8
-5 -15 -12 -15 -6 0 -8 -3 -5 -7 18 -18 97 99 97 144 0 16 4 22 12 17 8 -5 9
0 5 17 -4 13 -7 35 -8 49 0 23 -1 23 -9 5 -7 -16 -9 -17 -9 -3 -1 9 4 20 9 23
6 4 8 11 5 16 -13 20 -24 6 -30 -38z"/>
<path d="M1861 1224 c0 -11 3 -14 6 -6 3 7 2 16 -1 19 -3 4 -6 -2 -5 -13z"/>
<path d="M2281 1218 c0 -9 -4 -25 -7 -35 -5 -14 -4 -15 5 -7 7 7 11 22 8 35
-2 13 -5 16 -6 7z"/>
<path d="M2272 1130 c0 -19 2 -27 5 -17 2 9 2 25 0 35 -3 9 -5 1 -5 -18z"/>
<path d="M317 1085 c-7 -64 6 -292 18 -304 3 -2 5 1 5 8 0 7 5 9 13 5 10 -6
10 -4 0 7 -8 8 -12 37 -11 74 1 46 2 51 5 20 4 -40 26 -75 47 -75 6 0 0 7 -12
16 -22 15 -23 20 -16 94 5 64 3 82 -10 101 -16 23 -16 23 -18 -21 -1 -25 -4
-2 -7 50 l-6 95 -8 -70z"/>
<path d="M516 955 c-3 -9 1 -18 9 -21 8 -4 15 -16 15 -27 0 -20 0 -20 14 -1
14 18 15 18 25 -9 16 -42 13 -65 -9 -72 -24 -8 -25 -18 -3 -51 10 -16 19 -21
23 -14 5 7 14 5 29 -7 l22 -18 -28 -27 c-24 -23 -33 -26 -63 -18 -19 4 -28 8
-20 9 8 1 -6 15 -32 31 -25 16 -49 34 -53 39 -3 6 -15 16 -26 22 -18 9 -19 8
-11 -8 6 -10 27 -37 47 -60 29 -34 43 -43 68 -43 18 0 39 -5 47 -10 11 -7 24
0 52 27 39 38 49 63 24 63 -20 0 -43 61 -45 117 -1 22 -55 93 -71 93 -4 0 -11
-7 -14 -15z"/>
<path d="M520 873 c0 -5 5 -15 10 -23 8 -12 10 -11 10 8 0 12 -4 22 -10 22 -5
0 -10 -3 -10 -7z"/>
<path d="M1432 827 c-12 -13 -22 -31 -22 -40 0 -16 1 -16 18 1 10 9 17 19 16
21 -2 2 1 12 7 22 13 25 7 24 -19 -4z"/>
<path d="M360 779 c0 -4 7 -23 15 -42 20 -48 19 -54 -5 -32 -17 16 -20 16 -20
2 0 -40 31 -65 43 -34 3 7 6 5 6 -5 1 -10 4 -18 9 -19 4 0 14 -2 23 -4 12 -2
15 3 11 21 -2 13 -10 24 -18 24 -7 0 -25 21 -38 48 -14 26 -25 44 -26 41z"/>
<path d="M508 623 c6 -2 18 -2 25 0 6 3 1 5 -13 5 -14 0 -19 -2 -12 -5z"/>
<path d="M599 583 c-13 -15 -12 -15 9 -4 23 12 28 21 13 21 -5 0 -15 -7 -22
-17z"/>
<path d="M561 510 c-1 -57 24 -108 68 -137 50 -34 66 -31 45 8 -10 20 -19 28
-23 20 -14 -22 -72 52 -80 105 l-9 49 -1 -45z"/>
<path d="M1007 398 l-38 -67 20 -20 c13 -13 21 -16 22 -8 2 17 1 20 -7 41 -5
12 -4 17 3 13 13 -8 46 64 41 89 -3 14 -15 0 -41 -48z"/>
<path d="M1087 396 c-20 -58 -20 -56 -7 -56 11 0 33 76 27 93 -2 6 -11 -10
-20 -37z"/>
<path d="M1174 395 c-3 -20 -4 -39 0 -42 3 -4 6 2 6 13 0 16 2 17 10 4 8 -12
10 -11 10 7 0 12 3 28 6 37 4 10 1 16 -9 16 -10 0 -18 -13 -23 -35z"/>
<path d="M1437 339 c3 -10 9 -16 14 -13 13 8 11 21 -5 27 -10 4 -12 0 -9 -14z"/>
<path d="M1072 311 c-11 -7 -11 -9 2 -14 10 -4 16 -1 16 8 0 17 -1 17 -18 6z"/>
<path d="M927 277 c-4 -10 -7 -26 -7 -35 0 -10 -9 -35 -20 -57 -12 -22 -14
-32 -6 -21 9 10 20 15 27 10 9 -5 10 -1 6 17 -6 23 -5 23 8 5 8 -11 15 -23 15
-26 0 -17 -39 -39 -75 -43 l-40 -4 42 -1 c27 -1 47 4 58 15 14 14 18 14 26 2
5 -8 7 -19 4 -26 -4 -13 32 -29 42 -19 4 3 -1 6 -10 6 -19 0 -32 56 -24 98 4
21 1 31 -13 40 -10 6 -20 22 -22 34 -3 21 -4 21 -11 5z"/>
</g>
</svg>
